<svg xmlns="http://www.w3.org/2000/svg" version="1.1" xmlns:xlink="http://www.w3.org/1999/xlink" viewBox="0 0 15.990444508611297 5.93913664373119"><g transform="matrix(0.7647020978720771,0,0,0.7647020978720771,5.399984514692207,2.2200981339055073)"><g transform="matrix(1,0,0,1,0,0)" clip-path="url(#SvgjsClipPath1486)"><g clip-path="url(#SvgjsClipPath14843e6794ec-689d-403f-b5dd-f3d0553bfdce)"><path d=" M -3.687700481918692 -1.0757545238513244 L -3.64873669195506 -1.0110791631849465 L -2.70646992245664 -1.0110791631849465 L -2.6674683768825784 -1.0757545238513244 Z" fill="#3f170e" transform="matrix(1,0,0,1,0,0)" fill-rule="nonzero"></path></g><g clip-path="url(#SvgjsClipPath14843e6794ec-689d-403f-b5dd-f3d0553bfdce)"><path d=" M -2.769642202462732 -0.9062502870658034 L -3.585578699462786 -0.9062502870658034 L -3.5329096229131087 -0.8188460489206402 L -2.822311279012409 -0.8189215601414999 Z" fill="#3f170e" transform="matrix(1,0,0,1,0,0)" fill-rule="nonzero"></path></g><g clip-path="url(#SvgjsClipPath14843e6794ec-689d-403f-b5dd-f3d0553bfdce)"><path d=" M -2.8854578269954385 -0.7140359938315708 L -3.469763654008202 -0.7140359938315708 L -3.417094577458525 -0.6266317556864074 L -2.9381269035451156 -0.6267072669072672 Z" fill="#3f170e" transform="matrix(1,0,0,1,0,0)" fill-rule="nonzero"></path></g><g clip-path="url(#SvgjsClipPath14843e6794ec-689d-403f-b5dd-f3d0553bfdce)"><path d=" M -3.001216817970916 -0.521821700597338 L -3.3539297306068194 -0.521821700597338 L -3.3012606540571423 -0.4344174624521747 L -3.053885894520594 -0.4344174624521747 Z" fill="#3f170e" transform="matrix(1,0,0,1,0,0)" fill-rule="nonzero"></path></g><g clip-path="url(#SvgjsClipPath14843e6794ec-689d-403f-b5dd-f3d0553bfdce)"><path d=" M -3.177432131288039 -0.22894125938907806 L -3.117023154600237 -0.32959771679512795 L -3.23810539724885 -0.32959771679512795 Z" fill="#3f170e" transform="matrix(1,0,0,1,0,0)" fill-rule="nonzero"></path></g><g clip-path="url(#SvgjsClipPath14843e6794ec-689d-403f-b5dd-f3d0553bfdce)"><path d=" M -1.4211405712899823 0.8290019064217893 L -2.3634073407884015 0.8290019064217893 L -2.416076417338079 0.9163306333460928 L -1.3684714947403047 0.9164061445669525 Z" fill="#3f170e" transform="matrix(1,0,0,1,0,0)" fill-rule="nonzero"></path></g><g clip-path="url(#SvgjsClipPath14843e6794ec-689d-403f-b5dd-f3d0553bfdce)"><path d=" M -2.2476223887071223 0.636844246744785 L -2.3002914652568 0.7241729736690885 L -1.484354968256746 0.7241729736690885 L -1.5369862891959936 0.6368064911343552 Z" fill="#3f170e" transform="matrix(1,0,0,1,0,0)" fill-rule="nonzero"></path></g><g clip-path="url(#SvgjsClipPath14843e6794ec-689d-403f-b5dd-f3d0553bfdce)"><path d=" M -2.1844476556184995 0.5319588987572192 L -1.6001418286057358 0.5319588987572192 L -1.652810905155413 0.44455466061205606 L -2.131778579068822 0.44463017183291575 Z" fill="#3f170e" transform="matrix(1,0,0,1,0,0)" fill-rule="nonzero"></path></g><g clip-path="url(#SvgjsClipPath14843e6794ec-689d-403f-b5dd-f3d0553bfdce)"><path d=" M -2.068660347864407 0.33974460552298646 L -1.7159474352285038 0.33974460552298646 L -1.7686165117781811 0.2523403673778233 L -2.01599127131473 0.2523403673778233 Z" fill="#3f170e" transform="matrix(1,0,0,1,0,0)" fill-rule="nonzero"></path></g><g clip-path="url(#SvgjsClipPath14843e6794ec-689d-403f-b5dd-f3d0553bfdce)"><path d=" M -1.9528447233317006 0.1475303122887539 L -1.8318002362935177 0.1475303122887539 L -1.8924357466438986 0.046873854882704125 Z" fill="#3f170e" transform="matrix(1,0,0,1,0,0)" fill-rule="nonzero"></path></g><g clip-path="url(#SvgjsClipPath14843e6794ec-689d-403f-b5dd-f3d0553bfdce)"><path d=" M -1.4866372802249819 -1.0757545238513244 L -1.9442352786350812 -0.3163004200543653 L -1.891566202085404 -0.22897169313006183 L -1.3812991271256276 -1.0757545238513244 Z" fill="#d56a34" transform="matrix(1,0,0,1,0,0)" fill-rule="nonzero"></path></g><g clip-path="url(#SvgjsClipPath14843e6794ec-689d-403f-b5dd-f3d0553bfdce)"><path d=" M -1.7182118957331665 -1.0757545238513244 L -2.0600511925652656 -0.5085142327528649 L -2.007419871626018 -0.42114775021813144 L -1.6129492538546715 -1.0757545238513244 Z" fill="#d56a34" transform="matrix(1,0,0,1,0,0)" fill-rule="nonzero"></path></g><g clip-path="url(#SvgjsClipPath14843e6794ec-689d-403f-b5dd-f3d0553bfdce)"><path d=" M -1.9498714615771937 -1.0757545238513244 L -2.1758765456104325 -0.7007658010617943 L -2.1232074690607554 -0.613361562916631 L -1.8445710640882693 -1.0757545238513244 Z" fill="#d56a34" transform="matrix(1,0,0,1,0,0)" fill-rule="nonzero"></path></g><g clip-path="url(#SvgjsClipPath14843e6794ec-689d-403f-b5dd-f3d0553bfdce)"><path d=" M -2.1815593441998358 -1.0757545238513244 L -2.291730215434214 -0.892941858149864 L -2.2390611388845367 -0.8056131312255606 L -2.076221191100481 -1.0757545238513244 Z" fill="#d56a34" transform="matrix(1,0,0,1,0,0)" fill-rule="nonzero"></path></g><g clip-path="url(#SvgjsClipPath14843e6794ec-689d-403f-b5dd-f3d0553bfdce)"><path d=" M -2.401807248262278 -1.0757545238513244 L -2.354839268887512 -0.9977514327032002 L -2.307871289512746 -1.0757545238513244 Z" fill="#d56a34" transform="matrix(1,0,0,1,0,0)" fill-rule="nonzero"></path></g><g clip-path="url(#SvgjsClipPath14843e6794ec-689d-403f-b5dd-f3d0553bfdce)"><path d=" M -3.0577654248637804 -0.15568575311374533 L -2.0101605022660065 -0.15564799750331548 L -2.0628295788156836 -0.24301448003804882 L -3.0050963483141033 -0.24301448003804882 Z" fill="#d56a34" transform="matrix(1,0,0,1,0,0)" fill-rule="nonzero"></path></g><g clip-path="url(#SvgjsClipPath14843e6794ec-689d-403f-b5dd-f3d0553bfdce)"><path d=" M -2.9419214835524596 -0.34784341279074915 L -2.125984986552406 -0.34784341279074915 L -2.178654063102083 -0.43524765093591244 L -2.8892524070027825 -0.43517213971505264 Z" fill="#d56a34" transform="matrix(1,0,0,1,0,0)" fill-rule="nonzero"></path></g><g clip-path="url(#SvgjsClipPath14843e6794ec-689d-403f-b5dd-f3d0553bfdce)"><path d=" M -2.826105859019753 -0.5400577060249818 L -2.2418000320069895 -0.5400577060249818 L -2.294469108556667 -0.6274619441701452 L -2.773436782470076 -0.6273864329492853 Z" fill="#d56a34" transform="matrix(1,0,0,1,0,0)" fill-rule="nonzero"></path></g><g clip-path="url(#SvgjsClipPath14843e6794ec-689d-403f-b5dd-f3d0553bfdce)"><path d=" M -2.710318551265661 -0.7322719992592144 L -2.357605638629758 -0.7322719992592144 L -2.410274715179435 -0.8196762374043778 L -2.657649474715984 -0.8196762374043778 Z" fill="#d56a34" transform="matrix(1,0,0,1,0,0)" fill-rule="nonzero"></path></g><g clip-path="url(#SvgjsClipPath14843e6794ec-689d-403f-b5dd-f3d0553bfdce)"><path d=" M -2.534103237948538 -1.02512412368886 L -2.59451221463634 -0.9244676662828102 L -2.473429971987727 -0.9244676662828102 Z" fill="#d56a34" transform="matrix(1,0,0,1,0,0)" fill-rule="nonzero"></path></g><g clip-path="url(#SvgjsClipPath14843e6794ec-689d-403f-b5dd-f3d0553bfdce)"><path d=" M -0.7254539542925409 -0.15571406989235959 L -1.2492375377862133 -1.0249992444298284 L -1.3019066143358904 -0.937632761895095 L -0.830754351781466 -0.15575182550278943 Z" fill="#3f170e" transform="matrix(1,0,0,1,0,0)" fill-rule="nonzero"></path></g><g clip-path="url(#SvgjsClipPath14843e6794ec-689d-403f-b5dd-f3d0553bfdce)"><path d=" M -1.0623669862461211 -0.15574238667097384 L -0.9570665887571965 -0.15574238667097384 L -1.3650159594520086 -0.8328137485099432 L -1.4176850360016853 -0.7454095103647799 Z" fill="#3f170e" transform="matrix(1,0,0,1,0,0)" fill-rule="nonzero"></path></g><g clip-path="url(#SvgjsClipPath14843e6794ec-689d-403f-b5dd-f3d0553bfdce)"><path d=" M -1.5335581823889664 -0.5532250080806562 L -1.2941121010426917 -0.15577169708534988 L -1.188773947943337 -0.15573394147492003 L -1.4808891058392888 -0.6405537350049598 Z" fill="#3f170e" transform="matrix(1,0,0,1,0,0)" fill-rule="nonzero"></path></g><g clip-path="url(#SvgjsClipPath14843e6794ec-689d-403f-b5dd-f3d0553bfdce)"><path d=" M -1.6493171733644436 -0.36103903162503803 L -1.5256675492065992 -0.15576177771780142 L -1.4203671517176746 -0.15576177771780142 L -1.5966480968147665 -0.4484055141597715 Z" fill="#3f170e" transform="matrix(1,0,0,1,0,0)" fill-rule="nonzero"></path></g><g clip-path="url(#SvgjsClipPath14843e6794ec-689d-403f-b5dd-f3d0553bfdce)"><path d=" M -1.7125202232316812 -0.25621031719470067 L -1.7731934891924923 -0.15551610417822093 L -1.6519979797125894 -0.15574263784080022 Z" fill="#3f170e" transform="matrix(1,0,0,1,0,0)" fill-rule="nonzero"></path></g><g clip-path="url(#SvgjsClipPath14843e6794ec-689d-403f-b5dd-f3d0553bfdce)"><path d=" M -1.1171033193076663 -1.0757545238513244 L -1.0781017737336045 -1.0110791631849465 L -0.4000110104130279 -1.0110791631849465 L -0.4000110104130279 -1.0757545238513244 Z" fill="#3f170e" transform="matrix(1,0,0,1,0,0)" fill-rule="nonzero"></path></g><g clip-path="url(#SvgjsClipPath14843e6794ec-689d-403f-b5dd-f3d0553bfdce)"><path d=" M -1.0149646988456924 -0.9062502870658034 L -0.9622956222960153 -0.8188460489206402 L -0.4000390717742994 -0.81888380453107 L -0.4000390717742994 -0.9062502870658034 Z" fill="#3f170e" transform="matrix(1,0,0,1,0,0)" fill-rule="nonzero"></path></g><g clip-path="url(#SvgjsClipPath14843e6794ec-689d-403f-b5dd-f3d0553bfdce)"><path d=" M -0.899120757534372 -0.7140359938315708 L -0.8464894365951245 -0.6266317556864074 L -0.4000293432618389 -0.6267072669072672 L -0.4000293432618389 -0.7140359938315708 Z" fill="#3f170e" transform="matrix(1,0,0,1,0,0)" fill-rule="nonzero"></path></g><g clip-path="url(#SvgjsClipPath14843e6794ec-689d-403f-b5dd-f3d0553bfdce)"><path d=" M -0.4832888635825885 -0.43440780501482823 L -0.43061978703291093 -0.5218120431599916 L -0.7833326996688141 -0.5218120431599916 L -0.730663623119137 -0.43440780501482823 Z" fill="#3f170e" transform="matrix(1,0,0,1,0,0)" fill-rule="nonzero"></path></g><g clip-path="url(#SvgjsClipPath14843e6794ec-689d-403f-b5dd-f3d0553bfdce)"><path d=" M -0.5464352798925973 -0.32960740736310534 L -0.6674797669307808 -0.32960740736310534 L -0.6068442565803993 -0.22895094995705556 Z" fill="#3f170e" transform="matrix(1,0,0,1,0,0)" fill-rule="nonzero"></path></g><g clip-path="url(#SvgjsClipPath14843e6794ec-689d-403f-b5dd-f3d0553bfdce)"><path d=" M -1.0781111151557017 0.8289735896431747 L -1.1307801917053792 0.916340072177908 L -0.40002035183512596 0.9163778277883379 L -0.40002035183512596 0.8289735896431747 Z" fill="#d56a34" transform="matrix(1,0,0,1,0,0)" fill-rule="nonzero"></path></g><g clip-path="url(#SvgjsClipPath14843e6794ec-689d-403f-b5dd-f3d0553bfdce)"><path d=" M -0.9622954906229948 0.636844246744785 L -1.0149645671726724 0.7242107292795184 L -0.40003894010127894 0.7242107292795184 L -0.40003894010127894 0.6368064911343552 Z" fill="#d56a34" transform="matrix(1,0,0,1,0,0)" fill-rule="nonzero"></path></g><g clip-path="url(#SvgjsClipPath14843e6794ec-689d-403f-b5dd-f3d0553bfdce)"><path d=" M -0.8464798660902884 0.4445733199533237 L -0.8991111870295359 0.5319398024880571 L -0.40001977275700273 0.5319398024880571 L -0.40001977275700273 0.4445355643428939 Z" fill="#d56a34" transform="matrix(1,0,0,1,0,0)" fill-rule="nonzero"></path></g><g clip-path="url(#SvgjsClipPath14843e6794ec-689d-403f-b5dd-f3d0553bfdce)"><path d=" M -0.7833617665588943 0.33974460552298646 L -0.43064885392299157 0.33974460552298646 L -0.4833179304726687 0.2523403673778233 L -0.7306926900092172 0.2523403673778233 Z" fill="#d56a34" transform="matrix(1,0,0,1,0,0)" fill-rule="nonzero"></path></g><g clip-path="url(#SvgjsClipPath14843e6794ec-689d-403f-b5dd-f3d0553bfdce)"><path d=" M -0.607146453241771 0.046892481093340876 L -0.667555429929573 0.14754893849939066 L -0.5464731872809598 0.14754893849939066 Z" fill="#d56a34" transform="matrix(1,0,0,1,0,0)" fill-rule="nonzero"></path></g><g clip-path="url(#SvgjsClipPath14843e6794ec-689d-403f-b5dd-f3d0553bfdce)"><path d=" M -2.5339899708340807 0.8430753453931232 L -2.4813208942844036 0.7557466184688195 L -2.9524731568388285 -0.02617207353391593 L -3.0577735543277527 -0.02617207353391593 Z" fill="#3f170e" transform="matrix(1,0,0,1,0,0)" fill-rule="nonzero"></path></g><g clip-path="url(#SvgjsClipPath14843e6794ec-689d-403f-b5dd-f3d0553bfdce)"><path d=" M -2.826162492576982 -0.026193124510305976 L -2.41817536627174 0.6508404817182336 L -2.3655440453324927 0.5635117547939297 L -2.720899850698487 -0.026193124510305976 Z" fill="#3f170e" transform="matrix(1,0,0,1,0,0)" fill-rule="nonzero"></path></g><g clip-path="url(#SvgjsClipPath14843e6794ec-689d-403f-b5dd-f3d0553bfdce)"><path d=" M -2.5945595602901834 -0.026193124510305976 L -2.3024066467838016 0.4586644246301639 L -2.2496998146236944 0.3712601864850007 L -2.489259162801259 -0.026193124510305976 Z" fill="#3f170e" transform="matrix(1,0,0,1,0,0)" fill-rule="nonzero"></path></g><g clip-path="url(#SvgjsClipPath14843e6794ec-689d-403f-b5dd-f3d0553bfdce)"><path d=" M -2.362899994446156 -0.026221441288920122 L -2.1865435381282046 0.26642229515305016 L -2.133874461578527 0.17909356822874645 L -2.2575995969572316 -0.026221441288920122 Z" fill="#3f170e" transform="matrix(1,0,0,1,0,0)" fill-rule="nonzero"></path></g><g clip-path="url(#SvgjsClipPath14843e6794ec-689d-403f-b5dd-f3d0553bfdce)"><path d=" M -2.1312687453807433 -0.026221441288920122 L -2.070708746251222 0.07428399367541005 L -2.0101109915112705 -0.02644797495149942 Z" fill="#3f170e" transform="matrix(1,0,0,1,0,0)" fill-rule="nonzero"></path></g><g clip-path="url(#SvgjsClipPath14843e6794ec-689d-403f-b5dd-f3d0553bfdce)"><path d=" M -1.2494276257725416 0.8430753453931232 L -1.196758549222864 0.7557466184688195 L -1.667910811777289 -0.02617207353391593 L -1.7732112092662136 -0.02617207353391593 Z" fill="#d56a34" transform="matrix(1,0,0,1,0,0)" fill-rule="nonzero"></path></g><g clip-path="url(#SvgjsClipPath14843e6794ec-689d-403f-b5dd-f3d0553bfdce)"><path d=" M -1.5415718307368285 -0.026193124510305976 L -1.1335847044315863 0.6508404817182336 L -1.0809533834923388 0.5635117547939297 L -1.4363091888583335 -0.026193124510305976 Z" fill="#d56a34" transform="matrix(1,0,0,1,0,0)" fill-rule="nonzero"></path></g><g clip-path="url(#SvgjsClipPath14843e6794ec-689d-403f-b5dd-f3d0553bfdce)"><path d=" M -1.3099688984500295 -0.026193124510305976 L -1.0178159849436477 0.4586644246301639 L -0.9651091527835405 0.3712601864850007 L -1.2046685009611053 -0.026193124510305976 Z" fill="#d56a34" transform="matrix(1,0,0,1,0,0)" fill-rule="nonzero"></path></g><g clip-path="url(#SvgjsClipPath14843e6794ec-689d-403f-b5dd-f3d0553bfdce)"><path d=" M -1.0783093326060027 -0.026221441288920122 L -0.901915120677621 0.26642229515305016 L -0.8492837997383735 0.17909356822874645 L -0.9730089351170781 -0.026221441288920122 Z" fill="#d56a34" transform="matrix(1,0,0,1,0,0)" fill-rule="nonzero"></path></g><g clip-path="url(#SvgjsClipPath14843e6794ec-689d-403f-b5dd-f3d0553bfdce)"><path d=" M -0.7861084940844867 0.0742464892348067 L -0.7255107393445352 -0.02644772378167315 L -0.846668493214008 -0.026258945729523697 Z" fill="#d56a34" transform="matrix(1,0,0,1,0,0)" fill-rule="nonzero"></path></g><g clip-path="url(#SvgjsClipPath14843e6794ec-689d-403f-b5dd-f3d0553bfdce)"><path d=" M -0.435801625846318 -0.2430146983604119 L -0.4884707023959951 -0.1556859714361084 L -0.40000930715879557 -0.1556859714361084 L -0.40000930715879557 -0.2430146983604119 Z" fill="#3f170e" transform="matrix(1,0,0,1,0,0)" fill-rule="nonzero"></path></g><g clip-path="url(#SvgjsClipPath14843e6794ec-689d-403f-b5dd-f3d0553bfdce)"><path d=" M -0.4884991508476295 -0.026164807731691386 L -0.3999999999999999 0.1206667612300969 L -0.3999999999999999 -0.026164807731691386 Z" fill="#3f170e" transform="matrix(1,0,0,1,0,0)" fill-rule="nonzero"></path></g><g clip-path="url(#SvgjsClipPath14843e6794ec-689d-403f-b5dd-f3d0553bfdce)"><path d=" M -2.3634096964612143 2.948512785706161 L -2.4160787730108915 3.035841512630465 L -1.3684738504131175 3.0359170238513253 L -1.4211429269627947 2.948512785706161 Z" fill="#3f170e" transform="matrix(1,0,0,1,0,0)" fill-rule="nonzero"></path></g><g clip-path="url(#SvgjsClipPath14843e6794ec-689d-403f-b5dd-f3d0553bfdce)"><path d=" M -1.5369561958226887 2.7562984924719283 L -2.247592295333818 2.7563362480823583 L -2.3002613718834954 2.8437027306170917 L -1.4842871192730116 2.8437027306170917 Z" fill="#3f170e" transform="matrix(1,0,0,1,0,0)" fill-rule="nonzero"></path></g><g clip-path="url(#SvgjsClipPath14843e6794ec-689d-403f-b5dd-f3d0553bfdce)"><path d=" M -1.6528001371340095 2.564084199237695 L -2.1317678110474185 2.564121954848125 L -2.184436887597096 2.651488437382859 L -1.600131060584332 2.651488437382859 Z" fill="#3f170e" transform="matrix(1,0,0,1,0,0)" fill-rule="nonzero"></path></g><g clip-path="url(#SvgjsClipPath14843e6794ec-689d-403f-b5dd-f3d0553bfdce)"><path d=" M -2.0160194564203238 2.3718699060034627 L -2.0686885329700013 2.459274144148626 L -1.715975620334098 2.459274144148626 L -1.7686446968837752 2.3718699060034627 Z" fill="#3f170e" transform="matrix(1,0,0,1,0,0)" fill-rule="nonzero"></path></g><g clip-path="url(#SvgjsClipPath14843e6794ec-689d-403f-b5dd-f3d0553bfdce)"><path d=" M -1.9528447233317006 2.2670411915731257 L -1.8318002362935177 2.2670411915731257 L -1.8924357466438986 2.1663847341670754 Z" fill="#3f170e" transform="matrix(1,0,0,1,0,0)" fill-rule="nonzero"></path></g><g clip-path="url(#SvgjsClipPath14843e6794ec-689d-403f-b5dd-f3d0553bfdce)"><path d=" M -1.4731018600473211 1.0213294667704793 L -1.9442541226017458 1.803248158773215 L -1.8915850460520685 1.8905768856975183 L -1.367801462558396 1.0213294667704793 Z" fill="#d56a34" transform="matrix(1,0,0,1,0,0)" fill-rule="nonzero"></path></g><g clip-path="url(#SvgjsClipPath14843e6794ec-689d-403f-b5dd-f3d0553bfdce)"><path d=" M -1.5994230094459527 1.0213294667704793 L -1.7046856513244473 1.0213294667704793 L -2.060041456690442 1.6110343460747152 L -2.0074101357511944 1.698363072999019 Z" fill="#d56a34" transform="matrix(1,0,0,1,0,0)" fill-rule="nonzero"></path></g><g clip-path="url(#SvgjsClipPath14843e6794ec-689d-403f-b5dd-f3d0553bfdce)"><path d=" M -1.8310259417327512 1.0213294667704793 L -1.9363263392216759 1.0213294667704793 L -2.1758856873992403 1.4188205333762154 L -2.123178855239133 1.5061870159109487 Z" fill="#d56a34" transform="matrix(1,0,0,1,0,0)" fill-rule="nonzero"></path></g><g clip-path="url(#SvgjsClipPath14843e6794ec-689d-403f-b5dd-f3d0553bfdce)"><path d=" M -2.2390424047869733 1.3139267401925956 L -2.0626859484690216 1.0212830037506255 L -2.1679863459579463 1.0212830037506255 L -2.291711481336651 1.2265980132682923 Z" fill="#d56a34" transform="matrix(1,0,0,1,0,0)" fill-rule="nonzero"></path></g><g clip-path="url(#SvgjsClipPath14843e6794ec-689d-403f-b5dd-f3d0553bfdce)"><path d=" M -2.294316756642192 1.0212728332132506 L -2.4154745105116646 1.0210840551611011 L -2.354876755771713 1.121778268177581 Z" fill="#d56a34" transform="matrix(1,0,0,1,0,0)" fill-rule="nonzero"></path></g><g clip-path="url(#SvgjsClipPath14843e6794ec-689d-403f-b5dd-f3d0553bfdce)"><path d=" M -2.062798774691236 1.8764961809239598 L -3.0050655441896557 1.8764961809239598 L -3.0577346207393328 1.9638249078482635 L -2.010129698141559 1.9639004190691232 Z" fill="#d56a34" transform="matrix(1,0,0,1,0,0)" fill-rule="nonzero"></path></g><g clip-path="url(#SvgjsClipPath14843e6794ec-689d-403f-b5dd-f3d0553bfdce)"><path d=" M -2.9419214835524596 1.771695783272237 L -2.125984986552406 1.771695783272237 L -2.178654063102083 1.6842915451270737 L -2.8892524070027825 1.6843670563479334 Z" fill="#d56a34" transform="matrix(1,0,0,1,0,0)" fill-rule="nonzero"></path></g><g clip-path="url(#SvgjsClipPath14843e6794ec-689d-403f-b5dd-f3d0553bfdce)"><path d=" M -2.826105859019753 1.5794814900380043 L -2.2418000320069895 1.5794814900380043 L -2.294469108556667 1.492077251892841 L -2.773436782470076 1.4921150075032705 Z" fill="#d56a34" transform="matrix(1,0,0,1,0,0)" fill-rule="nonzero"></path></g><g clip-path="url(#SvgjsClipPath14843e6794ec-689d-403f-b5dd-f3d0553bfdce)"><path d=" M -2.710318551265661 1.3872388800251572 L -2.357605638629758 1.3872388800251572 L -2.410274715179435 1.2998346418799942 L -2.657649474715984 1.2998346418799942 Z" fill="#d56a34" transform="matrix(1,0,0,1,0,0)" fill-rule="nonzero"></path></g><g clip-path="url(#SvgjsClipPath14843e6794ec-689d-403f-b5dd-f3d0553bfdce)"><path d=" M -2.5945029267329547 1.1950529035695387 L -2.4734584396947716 1.1950529035695387 L -2.5340939500451527 1.094396446163489 Z" fill="#d56a34" transform="matrix(1,0,0,1,0,0)" fill-rule="nonzero"></path></g><g clip-path="url(#SvgjsClipPath14843e6794ec-689d-403f-b5dd-f3d0553bfdce)"><path d=" M -1.301926933323553 1.1818856015138643 L -0.8307746707691286 1.9638042935165996 L -0.725474273280204 1.9638042935165996 L -1.249257856773876 1.094519118979131 Z" fill="#3f170e" transform="matrix(1,0,0,1,0,0)" fill-rule="nonzero"></path></g><g clip-path="url(#SvgjsClipPath14843e6794ec-689d-403f-b5dd-f3d0553bfdce)"><path d=" M -1.417714241077645 1.3740715779694828 L -1.0623961913220805 1.9637764572737186 L -0.9570957938331559 1.9637764572737186 L -1.3650451645279675 1.2866673398243194 Z" fill="#3f170e" transform="matrix(1,0,0,1,0,0)" fill-rule="nonzero"></path></g><g clip-path="url(#SvgjsClipPath14843e6794ec-689d-403f-b5dd-f3d0553bfdce)"><path d=" M -1.188716452423367 1.963796809392012 L -1.480869365929749 1.478939260251542 L -1.5335006868689964 1.5663057427862759 L -1.2940546055227218 1.9637590537815819 Z" fill="#3f170e" transform="matrix(1,0,0,1,0,0)" fill-rule="nonzero"></path></g><g clip-path="url(#SvgjsClipPath14843e6794ec-689d-403f-b5dd-f3d0553bfdce)"><path d=" M -1.4203760182673948 1.963796809392012 L -1.5966947189749163 1.671153072950042 L -1.6493260399141638 1.7585195554847748 L -1.525676415756319 1.963796809392012 Z" fill="#3f170e" transform="matrix(1,0,0,1,0,0)" fill-rule="nonzero"></path></g><g clip-path="url(#SvgjsClipPath14843e6794ec-689d-403f-b5dd-f3d0553bfdce)"><path d=" M -1.6519789505541933 1.963796809392012 L -1.7125011940732848 1.8633291300381112 L -1.7731744600340955 1.9640233430545915 Z" fill="#3f170e" transform="matrix(1,0,0,1,0,0)" fill-rule="nonzero"></path></g><g clip-path="url(#SvgjsClipPath14843e6794ec-689d-403f-b5dd-f3d0553bfdce)"><path d=" M -1.0781111151557017 1.1084601945668453 L -0.40002035183512596 1.1084601945668453 L -0.40002035183512596 1.021093712032112 L -1.1307801917053792 1.021055956421682 Z" fill="#3f170e" transform="matrix(1,0,0,1,0,0)" fill-rule="nonzero"></path></g><g clip-path="url(#SvgjsClipPath14843e6794ec-689d-403f-b5dd-f3d0553bfdce)"><path d=" M -1.0149646988456924 1.2132889089971828 L -0.9622956222960153 1.3006931471423462 L -0.4000390717742994 1.3006176359214865 L -0.4000390717742994 1.2132889089971828 Z" fill="#3f170e" transform="matrix(1,0,0,1,0,0)" fill-rule="nonzero"></path></g><g clip-path="url(#SvgjsClipPath14843e6794ec-689d-403f-b5dd-f3d0553bfdce)"><path d=" M -0.899120757534372 1.40553151901003 L -0.8464894365951245 1.4929357571551929 L -0.4000293432618389 1.4928602459343332 L -0.4000293432618389 1.40553151901003 Z" fill="#3f170e" transform="matrix(1,0,0,1,0,0)" fill-rule="nonzero"></path></g><g clip-path="url(#SvgjsClipPath14843e6794ec-689d-403f-b5dd-f3d0553bfdce)"><path d=" M -0.4306196553598909 1.597717495465648 L -0.7833325679957941 1.597717495465648 L -0.7306634914461165 1.6851217336108113 L -0.483288731909568 1.6851217336108113 Z" fill="#3f170e" transform="matrix(1,0,0,1,0,0)" fill-rule="nonzero"></path></g><g clip-path="url(#SvgjsClipPath14843e6794ec-689d-403f-b5dd-f3d0553bfdce)"><path d=" M -0.6068349686770134 1.8905696198952935 L -0.5464259919892114 1.7899131624892437 L -0.6675082346378245 1.7899131624892437 Z" fill="#3f170e" transform="matrix(1,0,0,1,0,0)" fill-rule="nonzero"></path></g><g clip-path="url(#SvgjsClipPath14843e6794ec-689d-403f-b5dd-f3d0553bfdce)"><path d=" M -1.0781111151557017 2.948512785706161 L -1.1307801917053792 3.035841512630465 L -0.40002035183512596 3.0358792682408953 L -0.40002035183512596 2.948512785706161 Z" fill="#d56a34" transform="matrix(1,0,0,1,0,0)" fill-rule="nonzero"></path></g><g clip-path="url(#SvgjsClipPath14843e6794ec-689d-403f-b5dd-f3d0553bfdce)"><path d=" M -0.9622954906229948 2.7563551260291574 L -1.0149645671726724 2.843683852953461 L -0.40003894010127894 2.843683852953461 L -0.40003894010127894 2.7563173704187274 Z" fill="#d56a34" transform="matrix(1,0,0,1,0,0)" fill-rule="nonzero"></path></g><g clip-path="url(#SvgjsClipPath14843e6794ec-689d-403f-b5dd-f3d0553bfdce)"><path d=" M -0.8464798660902884 2.564140832794924 L -0.8991111870295359 2.651507315329658 L -0.40001977275700273 2.651507315329658 L -0.40001977275700273 2.5641030771844946 Z" fill="#d56a34" transform="matrix(1,0,0,1,0,0)" fill-rule="nonzero"></path></g><g clip-path="url(#SvgjsClipPath14843e6794ec-689d-403f-b5dd-f3d0553bfdce)"><path d=" M -0.7306925583361963 2.3718699060034627 L -0.7833616348858738 2.459274144148626 L -0.43064872224997064 2.459274144148626 L -0.4833177987996482 2.3718699060034627 Z" fill="#d56a34" transform="matrix(1,0,0,1,0,0)" fill-rule="nonzero"></path></g><g clip-path="url(#SvgjsClipPath14843e6794ec-689d-403f-b5dd-f3d0553bfdce)"><path d=" M -0.6675461420261879 2.2670411915731257 L -0.5465016549880048 2.2670411915731257 L -0.6071371653383859 2.1663847341670754 Z" fill="#d56a34" transform="matrix(1,0,0,1,0,0)" fill-rule="nonzero"></path></g><g clip-path="url(#SvgjsClipPath14843e6794ec-689d-403f-b5dd-f3d0553bfdce)"><path d=" M -3.057793741642395 2.09334607155268 L -2.534010158148723 2.9625934904797195 L -2.4813410815990458 2.8752647635554154 L -2.95249334415347 2.09334607155268 Z" fill="#3f170e" transform="matrix(1,0,0,1,0,0)" fill-rule="nonzero"></path></g><g clip-path="url(#SvgjsClipPath14843e6794ec-689d-403f-b5dd-f3d0553bfdce)"><path d=" M -2.720880709688815 2.09334607155268 L -2.8261433515673096 2.09334607155268 L -2.4181562252620683 2.7703796777812193 L -2.365524904322821 2.6830509508569156 Z" fill="#3f170e" transform="matrix(1,0,0,1,0,0)" fill-rule="nonzero"></path></g><g clip-path="url(#SvgjsClipPath14843e6794ec-689d-403f-b5dd-f3d0553bfdce)"><path d=" M -2.2496895135459702 2.490828692962362 L -2.4892488617235347 2.093337626356626 L -2.5945492592124593 2.093337626356626 L -2.3023963457060774 2.578232931107526 Z" fill="#3f170e" transform="matrix(1,0,0,1,0,0)" fill-rule="nonzero"></path></g><g clip-path="url(#SvgjsClipPath14843e6794ec-689d-403f-b5dd-f3d0553bfdce)"><path d=" M -2.362899994446156 2.0932894379954514 L -2.1865435381282046 2.3859331744374215 L -2.133874461578527 2.298604447513118 L -2.2575995969572316 2.0932894379954514 Z" fill="#3f170e" transform="matrix(1,0,0,1,0,0)" fill-rule="nonzero"></path></g><g clip-path="url(#SvgjsClipPath14843e6794ec-689d-403f-b5dd-f3d0553bfdce)"><path d=" M -2.1312687453807433 2.0932894379954514 L -2.070708746251222 2.1937948729597823 L -2.0101109915112705 2.093100659943302 Z" fill="#3f170e" transform="matrix(1,0,0,1,0,0)" fill-rule="nonzero"></path></g><g clip-path="url(#SvgjsClipPath14843e6794ec-689d-403f-b5dd-f3d0553bfdce)"><path d=" M -1.1967584175498436 2.8752855962094426 L -1.6679106801042685 2.093366904206707 L -1.7732110775931929 2.093366904206707 L -1.2494274940995207 2.9626143231337463 Z" fill="#d56a34" transform="matrix(1,0,0,1,0,0)" fill-rule="nonzero"></path></g><g clip-path="url(#SvgjsClipPath14843e6794ec-689d-403f-b5dd-f3d0553bfdce)"><path d=" M -1.0809427930171376 2.6830146694179806 L -1.4362985983831322 2.0933097901137447 L -1.5415612402616268 2.0933097901137447 L -1.1336118695668147 2.7703433963422848 Z" fill="#d56a34" transform="matrix(1,0,0,1,0,0)" fill-rule="nonzero"></path></g><g clip-path="url(#SvgjsClipPath14843e6794ec-689d-403f-b5dd-f3d0553bfdce)"><path d=" M -0.9650988517058163 2.490828692962362 L -1.2046581998833803 2.093337626356626 L -1.309958597372305 2.093337626356626 L -1.0178056838659235 2.578232931107526 Z" fill="#d56a34" transform="matrix(1,0,0,1,0,0)" fill-rule="nonzero"></path></g><g clip-path="url(#SvgjsClipPath14843e6794ec-689d-403f-b5dd-f3d0553bfdce)"><path d=" M -0.9729992329392205 2.0932894379954514 L -1.0782996304281451 2.0932894379954514 L -0.9019431741101935 2.3859331744374215 L -0.8492740975605164 2.298604447513118 Z" fill="#d56a34" transform="matrix(1,0,0,1,0,0)" fill-rule="nonzero"></path></g><g clip-path="url(#SvgjsClipPath14843e6794ec-689d-403f-b5dd-f3d0553bfdce)"><path d=" M -0.7255105878497696 2.093091220545151 L -0.8466683417192424 2.0932799985973003 L -0.7861083425897211 2.1937854335616307 Z" fill="#d56a34" transform="matrix(1,0,0,1,0,0)" fill-rule="nonzero"></path></g><g clip-path="url(#SvgjsClipPath14843e6794ec-689d-403f-b5dd-f3d0553bfdce)"><path d=" M -0.435801625846318 1.8765244977025741 L -0.4884707023959951 1.9638532246268778 L -0.40000930715879557 1.9638532246268778 L -0.40000930715879557 1.8765244977025741 Z" fill="#3f170e" transform="matrix(1,0,0,1,0,0)" fill-rule="nonzero"></path></g><g clip-path="url(#SvgjsClipPath14843e6794ec-689d-403f-b5dd-f3d0553bfdce)"><path d=" M -0.4884991508476295 2.09334607155268 L -0.3999999999999999 2.2401776405144687 L -0.3999999999999999 2.09334607155268 Z" fill="#3f170e" transform="matrix(1,0,0,1,0,0)" fill-rule="nonzero"></path></g></g><g><path d=" M 0.7635000000000001 0.7605 L 0.9075 1.0695 L 1.053 1.0695 L 0.5640000000000001 0.01949999999999985 L 0.489 0.01949999999999985 L 0.045 1.0695 L 0.114 1.0695 L 0.246 0.7605 L 0.7635000000000001 0.7605 M 0.732 0.6929999999999998 L 0.2745 0.6929999999999998 L 0.4905 0.1874999999999999 L 0.4965 0.1874999999999999 L 0.732 0.6929999999999998 M 1.2764919433593749 0.01949999999999985 L 1.2764919433593749 1.0695 L 1.412991943359375 1.0695 L 1.412991943359375 0.6059999999999999 L 1.478991943359375 0.6059999999999999 Q 1.520991943359375 0.6059999999999999 1.548741943359375 0.6134999999999999 Q 1.576491943359375 0.6209999999999999 1.598991943359375 0.6389999999999999 Q 1.6214919433593749 0.6569999999999998 1.640991943359375 0.6854999999999999 Q 1.660491943359375 0.714 1.687491943359375 0.7559999999999999 L 1.805991943359375 0.9314999999999999 Q 1.828491943359375 0.9659999999999999 1.850241943359375 0.9944999999999999 Q 1.871991943359375 1.023 1.897491943359375 1.0432499999999998 Q 1.922991943359375 1.0635 1.955241943359375 1.0755 Q 1.987491943359375 1.0875 2.032491943359375 1.0875 Q 2.065491943359375 1.0875 2.086491943359375 1.0844999999999998 Q 2.107491943359375 1.0815 2.128491943359375 1.0695 L 2.128491943359375 1.0139999999999998 Q 2.1209919433593747 1.0154999999999998 2.1134919433593753 1.0162499999999999 Q 2.105991943359375 1.017 2.0984919433593747 1.017 Q 2.066991943359375 1.017 2.042991943359375 1.008 Q 2.018991943359375 0.9989999999999999 1.997991943359375 0.9817499999999999 Q 1.976991943359375 0.9644999999999999 1.957491943359375 0.9397499999999999 Q 1.9379919433593749 0.9149999999999999 1.916991943359375 0.8835 Q 1.853991943359375 0.7919999999999998 1.8194919433593748 0.73725 Q 1.7849919433593748 0.6824999999999999 1.764741943359375 0.6524999999999999 Q 1.744491943359375 0.6224999999999998 1.731741943359375 0.6089999999999999 Q 1.718991943359375 0.5954999999999999 1.700991943359375 0.5864999999999999 L 1.685991943359375 0.579 L 1.685991943359375 0.573 Q 1.757991943359375 0.5684999999999999 1.8097419433593749 0.5414999999999999 Q 1.861491943359375 0.5144999999999998 1.894491943359375 0.47399999999999987 Q 1.927491943359375 0.4334999999999999 1.942491943359375 0.38624999999999987 Q 1.957491943359375 0.33899999999999986 1.957491943359375 0.29399999999999993 Q 1.957491943359375 0.25349999999999984 1.941741943359375 0.2054999999999999 Q 1.9259919433593748 0.15749999999999986 1.887741943359375 0.11624999999999985 Q 1.849491943359375 0.07499999999999984 1.783491943359375 0.04724999999999979 Q 1.717491943359375 0.01949999999999985 1.616991943359375 0.01949999999999985 L 1.2764919433593749 0.01949999999999985 M 1.412991943359375 0.08549999999999991 L 1.564491943359375 0.08549999999999991 Q 1.6214919433593749 0.08549999999999991 1.6672419433593748 0.10199999999999987 Q 1.712991943359375 0.11849999999999983 1.745991943359375 0.14774999999999983 Q 1.778991943359375 0.17699999999999982 1.7962419433593748 0.21749999999999992 Q 1.813491943359375 0.2579999999999999 1.813491943359375 0.3059999999999998 Q 1.813491943359375 0.3464999999999999 1.7977419433593749 0.38774999999999993 Q 1.781991943359375 0.42899999999999994 1.7504919433593749 0.4627499999999999 Q 1.718991943359375 0.49649999999999983 1.673241943359375 0.5174999999999998 Q 1.627491943359375 0.5384999999999999 1.567491943359375 0.5384999999999999 L 1.412991943359375 0.5384999999999999 L 1.412991943359375 0.08549999999999991 M 2.740518310546875 1.0695 L 2.740518310546875 0.10199999999999987 L 3.142518310546875 0.10199999999999987 L 3.142518310546875 0.01949999999999985 L 2.2020183105468747 0.01949999999999985 L 2.2020183105468747 0.10199999999999987 L 2.604018310546875 0.10199999999999987 L 2.604018310546875 1.0695 L 2.740518310546875 1.0695 M 3.933006591796875 0.9794999999999999 Q 3.841506591796875 1.047 3.768756591796875 1.0665 Q 3.6960065917968747 1.0859999999999999 3.6345065917968746 1.0859999999999999 Q 3.5430065917968747 1.0859999999999999 3.4732565917968747 1.0612499999999998 Q 3.4035065917968748 1.0365 3.3562565917968747 0.9952499999999999 Q 3.3090065917968747 0.9539999999999998 3.2850065917968747 0.9014999999999999 Q 3.2610065917968747 0.8489999999999999 3.2610065917968747 0.7949999999999999 Q 3.2610065917968747 0.7379999999999999 3.2827565917968746 0.69 Q 3.304506591796875 0.6419999999999999 3.3427565917968747 0.6007499999999999 Q 3.381006591796875 0.5594999999999999 3.432006591796875 0.5257499999999998 Q 3.4830065917968747 0.4919999999999999 3.5430065917968747 0.4634999999999999 Q 3.4950065917968747 0.3959999999999999 3.4612565917968747 0.3397499999999999 Q 3.427506591796875 0.28349999999999986 3.427506591796875 0.22049999999999992 Q 3.427506591796875 0.18299999999999983 3.440256591796875 0.14324999999999988 Q 3.453006591796875 0.10349999999999993 3.480756591796875 0.07199999999999984 Q 3.5085065917968747 0.04049999999999998 3.551256591796875 0.02024999999999988 Q 3.594006591796875 -2.220446049250313e-16 3.654006591796875 -2.220446049250313e-16 Q 3.700506591796875 -2.220446049250313e-16 3.741006591796875 0.014999999999999902 Q 3.781506591796875 0.029999999999999805 3.8115065917968747 0.058499999999999774 Q 3.841506591796875 0.08699999999999986 3.8595065917968747 0.12674999999999992 Q 3.877506591796875 0.16649999999999987 3.877506591796875 0.21599999999999986 Q 3.877506591796875 0.2789999999999999 3.834756591796875 0.3397499999999999 Q 3.792006591796875 0.40049999999999986 3.687006591796875 0.44999999999999984 L 3.9855065917968746 0.8429999999999999 Q 4.0305065917968745 0.7829999999999999 4.054506591796875 0.7057499999999999 Q 4.078506591796875 0.6284999999999998 4.083006591796875 0.5084999999999998 L 4.200006591796875 0.5084999999999998 Q 4.1925065917968745 0.5894999999999999 4.1692565917968745 0.6539999999999999 Q 4.1460065917968745 0.7184999999999999 4.118256591796875 0.7679999999999999 Q 4.090506591796875 0.8174999999999999 4.064256591796875 0.8497499999999999 Q 4.038006591796875 0.8819999999999999 4.024506591796875 0.8969999999999999 L 4.161006591796875 1.0695 L 4.002006591796875 1.0695 L 3.933006591796875 0.9794999999999999 M 3.6615065917968748 0.06599999999999984 Q 3.628506591796875 0.06599999999999984 3.605256591796875 0.07724999999999993 Q 3.582006591796875 0.08849999999999991 3.5670065917968747 0.10649999999999993 Q 3.552006591796875 0.12449999999999983 3.545256591796875 0.1469999999999999 Q 3.538506591796875 0.16949999999999987 3.538506591796875 0.19199999999999984 Q 3.538506591796875 0.24449999999999983 3.571506591796875 0.29474999999999985 Q 3.604506591796875 0.34499999999999986 3.652506591796875 0.4049999999999999 Q 3.6720065917968747 0.39449999999999985 3.6952565917968747 0.3757499999999999 Q 3.7185065917968747 0.3569999999999999 3.738006591796875 0.33224999999999993 Q 3.757506591796875 0.3074999999999999 3.770256591796875 0.2759999999999999 Q 3.783006591796875 0.24449999999999983 3.783006591796875 0.20699999999999985 Q 3.783006591796875 0.1874999999999999 3.7770065917968747 0.16274999999999984 Q 3.771006591796875 0.1379999999999999 3.757506591796875 0.11699999999999988 Q 3.744006591796875 0.09599999999999986 3.720756591796875 0.08099999999999985 Q 3.697506591796875 0.06599999999999984 3.6615065917968748 0.06599999999999984 M 3.580506591796875 0.5159999999999999 Q 3.4710065917968747 0.573 3.429756591796875 0.6284999999999998 Q 3.3885065917968746 0.6839999999999999 3.3885065917968746 0.7514999999999998 Q 3.3885065917968746 0.813 3.4140065917968747 0.86025 Q 3.439506591796875 0.9074999999999999 3.480756591796875 0.9404999999999999 Q 3.522006591796875 0.9734999999999999 3.572256591796875 0.9907499999999999 Q 3.622506591796875 1.008 3.6720065917968747 1.008 Q 3.6840065917968747 1.008 3.708756591796875 1.00575 Q 3.733506591796875 1.0034999999999998 3.7650065917968747 0.9959999999999999 Q 3.796506591796875 0.9884999999999999 3.830256591796875 0.9734999999999999 Q 3.864006591796875 0.9584999999999999 3.8955065917968748 0.9314999999999999 L 3.580506591796875 0.5159999999999999 M 4.4084970703124995 0.01949999999999985 L 4.4084970703124995 1.0695 L 4.544997070312499 1.0695 L 4.544997070312499 0.5474999999999999 L 5.0099970703125 0.5474999999999999 L 5.0099970703125 0.4784999999999999 L 4.544997070312499 0.4784999999999999 L 4.544997070312499 0.10199999999999987 L 5.086497070312499 0.10199999999999987 L 5.086497070312499 0.01949999999999985 L 4.4084970703124995 0.01949999999999985 M 5.893481689453125 0.7605 L 6.0374816894531245 1.0695 L 6.182981689453125 1.0695 L 5.693981689453125 0.01949999999999985 L 5.618981689453125 0.01949999999999985 L 5.174981689453125 1.0695 L 5.243981689453125 1.0695 L 5.375981689453125 0.7605 L 5.893481689453125 0.7605 M 5.861981689453125 0.6929999999999998 L 5.4044816894531245 0.6929999999999998 L 5.620481689453125 0.1874999999999999 L 5.626481689453125 0.1874999999999999 L 5.861981689453125 0.6929999999999998 M 7.2899736328125 0.8759999999999999 Q 7.1369736328124995 1.0199999999999998 6.9269736328125 1.0199999999999998 Q 6.8099736328125 1.0199999999999998 6.7199736328125 0.9794999999999999 Q 6.6299736328125 0.9389999999999998 6.569973632812499 0.8714999999999999 Q 6.5099736328125 0.8039999999999998 6.4792236328124995 0.7154999999999999 Q 6.4484736328125 0.6269999999999999 6.4484736328125 0.5309999999999999 Q 6.4484736328125 0.42899999999999994 6.4807236328124995 0.34424999999999983 Q 6.5129736328125 0.25949999999999984 6.571473632812499 0.19799999999999984 Q 6.6299736328125 0.13649999999999984 6.710223632812499 0.10199999999999987 Q 6.7904736328125 0.0674999999999999 6.8849736328125 0.0674999999999999 Q 6.9494736328124995 0.0674999999999999 7.0027236328125 0.0824999999999999 Q 7.0559736328125 0.09749999999999992 7.0972236328125 0.12149999999999983 Q 7.1384736328125 0.14549999999999985 7.1647236328125 0.1762499999999999 Q 7.1909736328125 0.20699999999999985 7.201473632812499 0.23849999999999982 L 7.3124736328125 0.23849999999999982 Q 7.2899736328125 0.1874999999999999 7.2547236328124995 0.1439999999999999 Q 7.2194736328125 0.10049999999999992 7.1669736328125 0.06899999999999995 Q 7.1144736328125 0.03749999999999987 7.0439736328124996 0.01949999999999985 Q 6.9734736328124995 0.0014999999999998348 6.8834736328125 0.0014999999999998348 Q 6.7529736328125 0.0014999999999998348 6.6457236328125 0.038999999999999924 Q 6.5384736328125 0.0764999999999999 6.4619736328125 0.14624999999999988 Q 6.3854736328124995 0.21599999999999986 6.3434736328125 0.3142499999999999 Q 6.3014736328125 0.41249999999999987 6.3014736328125 0.5339999999999999 Q 6.3014736328125 0.6389999999999999 6.335223632812499 0.7387499999999999 Q 6.3689736328125 0.8384999999999999 6.4394736328125 0.9157499999999998 Q 6.5099736328125 0.9929999999999999 6.6194736328124995 1.04025 Q 6.7289736328125 1.0875 6.8804736328125 1.0875 Q 6.9764736328125 1.0875 7.0522236328125 1.0695 Q 7.1279736328125 1.0514999999999999 7.1842236328124995 1.02525 Q 7.2404736328125 0.9989999999999999 7.2779736328124995 0.9689999999999999 Q 7.3154736328125 0.9389999999999998 7.3349736328125 0.9164999999999999 L 7.2899736328125 0.8759999999999999 M 7.931931884765625 1.0695 L 7.931931884765625 0.10199999999999987 L 8.333931884765624 0.10199999999999987 L 8.333931884765624 0.01949999999999985 L 7.393431884765625 0.01949999999999985 L 7.393431884765625 0.10199999999999987 L 7.795431884765625 0.10199999999999987 L 7.795431884765625 1.0695 L 7.931931884765625 1.0695" fill="#3f170e" fill-rule="nonzero"></path></g><g><path d=" M 0.3645 1.4674124999999998 Q 0.42675 1.4989124999999999 0.45975 1.5581625 Q 0.49275 1.6174125 0.49275 1.6991625 Q 0.49275 1.7801624999999999 0.45975 1.8390374999999999 Q 0.42675 1.8979125 0.3645 1.9290374999999997 Q 0.30225 1.9601624999999998 0.21525 1.9601624999999998 L 0.06 1.9601624999999998 L 0.06 1.4359124999999997 L 0.21525 1.4359124999999997 Q 0.30225 1.4359124999999997 0.3645 1.4674124999999998 M 0.382125 1.8592874999999998 Q 0.4395 1.8019124999999998 0.4395 1.6991625 Q 0.4395 1.5956624999999998 0.382125 1.5375374999999998 Q 0.32475 1.4794124999999998 0.21525 1.4794124999999998 L 0.1125 1.4794124999999998 L 0.1125 1.9166624999999997 L 0.21525 1.9166624999999997 Q 0.32475 1.9166624999999997 0.382125 1.8592874999999998 M 0.6438702392578125 1.4359124999999997 L 0.6438702392578125 1.9601624999999998 L 0.5913702392578124 1.9601624999999998 L 0.5913702392578124 1.4359124999999997 L 0.6438702392578125 1.4359124999999997 M 0.8328731689453124 1.9474124999999998 Q 0.7934981689453124 1.9294124999999998 0.7709981689453125 1.8971624999999999 Q 0.7484981689453124 1.8649124999999998 0.7469981689453125 1.8251624999999998 L 0.8024981689453125 1.8251624999999998 Q 0.8062481689453125 1.8634125 0.8362481689453124 1.8922875 Q 0.8662481689453124 1.9211624999999999 0.9239981689453124 1.9211624999999999 Q 0.9772481689453124 1.9211624999999999 1.0083731689453124 1.8937874999999997 Q 1.0394981689453124 1.8664124999999998 1.0394981689453124 1.8244124999999998 Q 1.0394981689453124 1.7906624999999998 1.0222481689453125 1.7700374999999997 Q 1.0049981689453125 1.7494124999999998 0.9794981689453124 1.7392874999999999 Q 0.9539981689453124 1.7291624999999997 0.9089981689453124 1.7171624999999997 Q 0.8564981689453124 1.7029124999999998 0.8257481689453124 1.6894124999999998 Q 0.7949981689453124 1.6759125 0.7732481689453125 1.6474124999999997 Q 0.7514981689453124 1.6189124999999998 0.7514981689453124 1.5701625 Q 0.7514981689453124 1.5296624999999997 0.7724981689453124 1.4977874999999998 Q 0.7934981689453124 1.4659124999999997 0.8317481689453124 1.4479124999999997 Q 0.8699981689453125 1.4299125 0.9194981689453124 1.4299125 Q 0.9922481689453124 1.4299125 1.0368731689453123 1.4655374999999997 Q 1.0814981689453125 1.5011624999999997 1.0882481689453125 1.5574124999999999 L 1.0312481689453123 1.5574124999999999 Q 1.0259981689453124 1.5251624999999998 0.9959981689453123 1.5000375 Q 0.9659981689453124 1.4749124999999998 0.9149981689453124 1.4749124999999998 Q 0.8677481689453124 1.4749124999999998 0.8362481689453124 1.5000375 Q 0.8047481689453124 1.5251624999999998 0.8047481689453124 1.5686624999999998 Q 0.8047481689453124 1.6016624999999998 0.8219981689453124 1.6219124999999999 Q 0.8392481689453124 1.6421624999999997 0.8651231689453124 1.6526625 Q 0.8909981689453124 1.6631624999999999 0.9352481689453125 1.6751624999999999 Q 0.9862481689453124 1.6894124999999998 1.0177481689453125 1.7032874999999998 Q 1.0492481689453124 1.7171624999999997 1.0709981689453123 1.7456625 Q 1.0927481689453125 1.7741624999999999 1.0927481689453125 1.8221624999999997 Q 1.0927481689453125 1.8589124999999997 1.0732481689453124 1.8919124999999999 Q 1.0537481689453125 1.9249124999999998 1.0154981689453124 1.9451625 Q 0.9772481689453124 1.9654124999999998 0.9239981689453124 1.9654124999999998 Q 0.8722481689453124 1.9654124999999998 0.8328731689453124 1.9474124999999998 M 1.2056392822265622 1.5592875 Q 1.2393892822265622 1.4981624999999998 1.2978892822265622 1.4640374999999999 Q 1.3563892822265622 1.4299125 1.4283892822265623 1.4299125 Q 1.5161392822265622 1.4299125 1.5787642822265622 1.4715374999999997 Q 1.6413892822265623 1.5131624999999997 1.6698892822265623 1.5889124999999997 L 1.6083892822265624 1.5889124999999997 Q 1.5858892822265622 1.5356625 1.5397642822265623 1.5056624999999997 Q 1.4936392822265623 1.4756624999999999 1.4283892822265623 1.4756624999999999 Q 1.3706392822265623 1.4756624999999999 1.3245142822265623 1.5026624999999998 Q 1.2783892822265623 1.5296624999999997 1.2521392822265622 1.5802874999999998 Q 1.2258892822265623 1.6309124999999998 1.2258892822265623 1.6976624999999999 Q 1.2258892822265623 1.7644124999999997 1.2521392822265622 1.8146624999999998 Q 1.2783892822265623 1.8649124999999998 1.3245142822265623 1.8919124999999999 Q 1.3706392822265623 1.9189124999999998 1.4283892822265623 1.9189124999999998 Q 1.4936392822265623 1.9189124999999998 1.5397642822265623 1.8892874999999998 Q 1.5858892822265622 1.8596624999999998 1.6083892822265624 1.8071624999999998 L 1.6698892822265623 1.8071624999999998 Q 1.6413892822265623 1.8821624999999997 1.5783892822265622 1.9234124999999997 Q 1.5153892822265622 1.9646624999999998 1.4283892822265623 1.9646624999999998 Q 1.3563892822265622 1.9646624999999998 1.2978892822265622 1.9305374999999998 Q 1.2393892822265622 1.8964124999999998 1.2056392822265622 1.8356624999999998 Q 1.1718892822265623 1.7749125 1.1718892822265623 1.6976624999999999 Q 1.1718892822265623 1.6204124999999998 1.2056392822265622 1.5592875 M 1.879511352539062 1.9312874999999998 Q 1.820261352539062 1.8971624999999999 1.786136352539062 1.8360374999999998 Q 1.7520113525390622 1.7749125 1.7520113525390622 1.6976624999999999 Q 1.7520113525390622 1.6204124999999998 1.786136352539062 1.5592875 Q 1.820261352539062 1.4981624999999998 1.879511352539062 1.4640374999999999 Q 1.9387613525390621 1.4299125 2.011511352539062 1.4299125 Q 2.085011352539062 1.4299125 2.144261352539062 1.4640374999999999 Q 2.203511352539062 1.4981624999999998 2.237261352539062 1.5592875 Q 2.271011352539062 1.6204124999999998 2.271011352539062 1.6976624999999999 Q 2.271011352539062 1.7749125 2.237261352539062 1.8360374999999998 Q 2.203511352539062 1.8971624999999999 2.144261352539062 1.9312874999999998 Q 2.085011352539062 1.9654124999999998 2.011511352539062 1.9654124999999998 Q 1.9387613525390621 1.9654124999999998 1.879511352539062 1.9312874999999998 M 2.116511352539062 1.8926624999999997 Q 2.163011352539062 1.8656624999999998 2.190011352539062 1.8150374999999999 Q 2.2170113525390622 1.7644124999999997 2.2170113525390622 1.6976624999999999 Q 2.2170113525390622 1.6309124999999998 2.190011352539062 1.5806624999999999 Q 2.163011352539062 1.5304124999999997 2.116511352539062 1.5034124999999998 Q 2.070011352539062 1.4764125 2.011511352539062 1.4764125 Q 1.9530113525390622 1.4764125 1.906511352539062 1.5034124999999998 Q 1.860011352539062 1.5304124999999997 1.833011352539062 1.5806624999999999 Q 1.8060113525390622 1.6309124999999998 1.8060113525390622 1.6976624999999999 Q 1.8060113525390622 1.7644124999999997 1.833011352539062 1.8150374999999999 Q 1.860011352539062 1.8656624999999998 1.906511352539062 1.8926624999999997 Q 1.9530113525390622 1.9196624999999998 2.011511352539062 1.9196624999999998 Q 2.070011352539062 1.9196624999999998 2.116511352539062 1.8926624999999997 M 2.7844050292968747 1.4359124999999997 L 2.5856550292968743 1.9601624999999998 L 2.5256550292968747 1.9601624999999998 L 2.3269050292968743 1.4359124999999997 L 2.3839050292968746 1.4359124999999997 L 2.5556550292968745 1.9031624999999999 L 2.7289050292968744 1.4359124999999997 L 2.7844050292968747 1.4359124999999997 M 2.917527465820312 1.4786624999999998 L 2.917527465820312 1.6744124999999999 L 3.1162774658203123 1.6744124999999999 L 3.1162774658203123 1.7179124999999997 L 2.917527465820312 1.7179124999999997 L 2.917527465820312 1.9166624999999997 L 3.1387774658203123 1.9166624999999997 L 3.1387774658203123 1.9601624999999998 L 2.865027465820312 1.9601624999999998 L 2.865027465820312 1.4351624999999997 L 3.1387774658203123 1.4351624999999997 L 3.1387774658203123 1.4786624999999998 L 2.917527465820312 1.4786624999999998 M 3.5231455078124996 1.9601624999999998 L 3.3933955078124995 1.7411624999999997 L 3.2966455078124994 1.7411624999999997 L 3.2966455078124994 1.9601624999999998 L 3.2441455078124997 1.9601624999999998 L 3.2441455078124997 1.4359124999999997 L 3.4016455078124994 1.4359124999999997 Q 3.4893955078124996 1.4359124999999997 3.5347705078124996 1.4779124999999997 Q 3.5801455078124995 1.5199124999999998 3.5801455078124995 1.5881624999999997 Q 3.5801455078124995 1.6451624999999999 3.5475205078124996 1.6852874999999998 Q 3.5148955078124997 1.7254124999999998 3.4511455078124995 1.7374124999999998 L 3.5861455078124997 1.9601624999999998 L 3.5231455078124996 1.9601624999999998 M 3.2966455078124994 1.6984124999999999 L 3.4023955078124994 1.6984124999999999 Q 3.4638955078124996 1.6984124999999999 3.4950205078125 1.6684124999999999 Q 3.5261455078124997 1.6384124999999998 3.5261455078124997 1.5881624999999997 Q 3.5261455078124997 1.5364124999999997 3.4961455078124994 1.5082874999999998 Q 3.4661455078124996 1.4801624999999998 3.4016455078124994 1.4801624999999998 L 3.2966455078124994 1.4801624999999998 L 3.2966455078124994 1.6984124999999999 M 3.667876831054687 1.9526624999999997 Q 3.657001831054687 1.9414124999999998 3.657001831054687 1.9249124999999998 Q 3.657001831054687 1.9084124999999998 3.667876831054687 1.8975374999999999 Q 3.6787518310546874 1.8866625 3.695251831054687 1.8866625 Q 3.7110018310546873 1.8866625 3.7218768310546873 1.8975374999999999 Q 3.732751831054687 1.9084124999999998 3.732751831054687 1.9249124999999998 Q 3.732751831054687 1.9414124999999998 3.7218768310546873 1.9526624999999997 Q 3.7110018310546873 1.9639124999999997 3.695251831054687 1.9639124999999997 Q 3.6787518310546874 1.9639124999999997 3.667876831054687 1.9526624999999997 M 4.0417470703125 1.5592875 Q 4.0754970703125 1.4981624999999998 4.1339970703125 1.4640374999999999 Q 4.1924970703125 1.4299125 4.264497070312499 1.4299125 Q 4.3522470703125 1.4299125 4.4148720703125 1.4715374999999997 Q 4.4774970703125 1.5131624999999997 4.5059970703125 1.5889124999999997 L 4.4444970703125 1.5889124999999997 Q 4.4219970703125 1.5356625 4.3758720703125 1.5056624999999997 Q 4.3297470703125 1.4756624999999999 4.264497070312499 1.4756624999999999 Q 4.2067470703125 1.4756624999999999 4.1606220703125 1.5026624999999998 Q 4.1144970703125 1.5296624999999997 4.0882470703125 1.5802874999999998 Q 4.0619970703125 1.6309124999999998 4.0619970703125 1.6976624999999999 Q 4.0619970703125 1.7644124999999997 4.0882470703125 1.8146624999999998 Q 4.1144970703125 1.8649124999999998 4.1606220703125 1.8919124999999999 Q 4.2067470703125 1.9189124999999998 4.264497070312499 1.9189124999999998 Q 4.3297470703125 1.9189124999999998 4.3758720703125 1.8892874999999998 Q 4.4219970703125 1.8596624999999998 4.4444970703125 1.8071624999999998 L 4.5059970703125 1.8071624999999998 Q 4.4774970703125 1.8821624999999997 4.4144970703125 1.9234124999999997 Q 4.3514970703125 1.9646624999999998 4.264497070312499 1.9646624999999998 Q 4.1924970703125 1.9646624999999998 4.1339970703125 1.9305374999999998 Q 4.0754970703125 1.8964124999999998 4.0417470703125 1.8356624999999998 Q 4.007997070312499 1.7749125 4.007997070312499 1.6976624999999999 Q 4.007997070312499 1.6204124999999998 4.0417470703125 1.5592875 M 4.715619140625 1.9312874999999998 Q 4.656369140625 1.8971624999999999 4.622244140625 1.8360374999999998 Q 4.5881191406249995 1.7749125 4.5881191406249995 1.6976624999999999 Q 4.5881191406249995 1.6204124999999998 4.622244140625 1.5592875 Q 4.656369140625 1.4981624999999998 4.715619140625 1.4640374999999999 Q 4.774869140625 1.4299125 4.8476191406249995 1.4299125 Q 4.921119140625 1.4299125 4.980369140625 1.4640374999999999 Q 5.039619140625 1.4981624999999998 5.073369140625 1.5592875 Q 5.107119140625 1.6204124999999998 5.107119140625 1.6976624999999999 Q 5.107119140625 1.7749125 5.073369140625 1.8360374999999998 Q 5.039619140625 1.8971624999999999 4.980369140625 1.9312874999999998 Q 4.921119140625 1.9654124999999998 4.8476191406249995 1.9654124999999998 Q 4.774869140625 1.9654124999999998 4.715619140625 1.9312874999999998 M 4.952619140625 1.8926624999999997 Q 4.999119140625 1.8656624999999998 5.026119140625 1.8150374999999999 Q 5.053119140625 1.7644124999999997 5.053119140625 1.6976624999999999 Q 5.053119140625 1.6309124999999998 5.026119140625 1.5806624999999999 Q 4.999119140625 1.5304124999999997 4.952619140625 1.5034124999999998 Q 4.906119140625 1.4764125 4.8476191406249995 1.4764125 Q 4.789119140625 1.4764125 4.742619140625 1.5034124999999998 Q 4.696119140625 1.5304124999999997 4.669119140625 1.5806624999999999 Q 4.642119140625 1.6309124999999998 4.642119140625 1.6976624999999999 Q 4.642119140625 1.7644124999999997 4.669119140625 1.8150374999999999 Q 4.696119140625 1.8656624999999998 4.742619140625 1.8926624999999997 Q 4.789119140625 1.9196624999999998 4.8476191406249995 1.9196624999999998 Q 4.906119140625 1.9196624999999998 4.952619140625 1.8926624999999997 M 5.257512817382812 1.9174124999999997 L 5.445762817382812 1.9174124999999997 L 5.445762817382812 1.9601624999999998 L 5.205012817382812 1.9601624999999998 L 5.205012817382812 1.4359124999999997 L 5.257512817382812 1.4359124999999997 L 5.257512817382812 1.9174124999999997 M 5.575153198242187 1.9174124999999997 L 5.763403198242187 1.9174124999999997 L 5.763403198242187 1.9601624999999998 L 5.522653198242187 1.9601624999999998 L 5.522653198242187 1.4359124999999997 L 5.575153198242187 1.4359124999999997 L 5.575153198242187 1.9174124999999997 M 5.892793579101562 1.4786624999999998 L 5.892793579101562 1.6744124999999999 L 6.091543579101563 1.6744124999999999 L 6.091543579101563 1.7179124999999997 L 5.892793579101562 1.7179124999999997 L 5.892793579101562 1.9166624999999997 L 6.114043579101563 1.9166624999999997 L 6.114043579101563 1.9601624999999998 L 5.840293579101562 1.9601624999999998 L 5.840293579101562 1.4351624999999997 L 6.114043579101563 1.4351624999999997 L 6.114043579101563 1.4786624999999998 L 5.892793579101562 1.4786624999999998 M 6.22916162109375 1.5592875 Q 6.2629116210937505 1.4981624999999998 6.32141162109375 1.4640374999999999 Q 6.3799116210937505 1.4299125 6.45191162109375 1.4299125 Q 6.53966162109375 1.4299125 6.60228662109375 1.4715374999999997 Q 6.664911621093751 1.5131624999999997 6.69341162109375 1.5889124999999997 L 6.63191162109375 1.5889124999999997 Q 6.60941162109375 1.5356625 6.56328662109375 1.5056624999999997 Q 6.51716162109375 1.4756624999999999 6.45191162109375 1.4756624999999999 Q 6.39416162109375 1.4756624999999999 6.34803662109375 1.5026624999999998 Q 6.30191162109375 1.5296624999999997 6.27566162109375 1.5802874999999998 Q 6.24941162109375 1.6309124999999998 6.24941162109375 1.6976624999999999 Q 6.24941162109375 1.7644124999999997 6.27566162109375 1.8146624999999998 Q 6.30191162109375 1.8649124999999998 6.34803662109375 1.8919124999999999 Q 6.39416162109375 1.9189124999999998 6.45191162109375 1.9189124999999998 Q 6.51716162109375 1.9189124999999998 6.56328662109375 1.8892874999999998 Q 6.60941162109375 1.8596624999999998 6.63191162109375 1.8071624999999998 L 6.69341162109375 1.8071624999999998 Q 6.664911621093751 1.8821624999999997 6.60191162109375 1.9234124999999997 Q 6.53891162109375 1.9646624999999998 6.45191162109375 1.9646624999999998 Q 6.3799116210937505 1.9646624999999998 6.32141162109375 1.9305374999999998 Q 6.2629116210937505 1.8964124999999998 6.22916162109375 1.8356624999999998 Q 6.19541162109375 1.7749125 6.19541162109375 1.6976624999999999 Q 6.19541162109375 1.6204124999999998 6.22916162109375 1.5592875 M 7.10628369140625 1.4359124999999997 L 7.10628369140625 1.4794124999999998 L 6.960783691406251 1.4794124999999998 L 6.960783691406251 1.9601624999999998 L 6.90828369140625 1.9601624999999998 L 6.90828369140625 1.4794124999999998 L 6.76203369140625 1.4794124999999998 L 6.76203369140625 1.4359124999999997 L 7.10628369140625 1.4359124999999997 M 7.17304833984375 1.9526624999999997 Q 7.162173339843751 1.9414124999999998 7.162173339843751 1.9249124999999998 Q 7.162173339843751 1.9084124999999998 7.17304833984375 1.8975374999999999 Q 7.1839233398437505 1.8866625 7.20042333984375 1.8866625 Q 7.21617333984375 1.8866625 7.22704833984375 1.8975374999999999 Q 7.23792333984375 1.9084124999999998 7.23792333984375 1.9249124999999998 Q 7.23792333984375 1.9414124999999998 7.22704833984375 1.9526624999999997 Q 7.21617333984375 1.9639124999999997 7.20042333984375 1.9639124999999997 Q 7.1839233398437505 1.9639124999999997 7.17304833984375 1.9526624999999997 M 7.816168579101563 1.9601624999999998 L 7.686418579101563 1.7411624999999997 L 7.589668579101563 1.7411624999999997 L 7.589668579101563 1.9601624999999998 L 7.537168579101563 1.9601624999999998 L 7.537168579101563 1.4359124999999997 L 7.694668579101563 1.4359124999999997 Q 7.782418579101563 1.4359124999999997 7.827793579101563 1.4779124999999997 Q 7.873168579101563 1.5199124999999998 7.873168579101563 1.5881624999999997 Q 7.873168579101563 1.6451624999999999 7.840543579101563 1.6852874999999998 Q 7.807918579101563 1.7254124999999998 7.744168579101563 1.7374124999999998 L 7.879168579101563 1.9601624999999998 L 7.816168579101563 1.9601624999999998 M 7.589668579101563 1.6984124999999999 L 7.695418579101563 1.6984124999999999 Q 7.756918579101563 1.6984124999999999 7.788043579101563 1.6684124999999999 Q 7.819168579101563 1.6384124999999998 7.819168579101563 1.5881624999999997 Q 7.819168579101563 1.5364124999999997 7.789168579101563 1.5082874999999998 Q 7.759168579101563 1.4801624999999998 7.694668579101563 1.4801624999999998 L 7.589668579101563 1.4801624999999998 L 7.589668579101563 1.6984124999999999 M 8.03177490234375 1.4786624999999998 L 8.03177490234375 1.6744124999999999 L 8.23052490234375 1.6744124999999999 L 8.23052490234375 1.7179124999999997 L 8.03177490234375 1.7179124999999997 L 8.03177490234375 1.9166624999999997 L 8.25302490234375 1.9166624999999997 L 8.25302490234375 1.9601624999999998 L 7.97927490234375 1.9601624999999998 L 7.97927490234375 1.4351624999999997 L 8.25302490234375 1.4351624999999997 L 8.25302490234375 1.4786624999999998 L 8.03177490234375 1.4786624999999998 M 8.641892944335938 1.4359124999999997 L 8.641892944335938 1.4794124999999998 L 8.410892944335938 1.4794124999999998 L 8.410892944335938 1.6751624999999999 L 8.605892944335936 1.6751624999999999 L 8.605892944335936 1.7186624999999998 L 8.410892944335938 1.7186624999999998 L 8.410892944335938 1.9601624999999998 L 8.358392944335938 1.9601624999999998 L 8.358392944335938 1.4359124999999997 L 8.641892944335938 1.4359124999999997 M 8.782503662109375 1.9174124999999997 L 8.970753662109376 1.9174124999999997 L 8.970753662109376 1.9601624999999998 L 8.730003662109375 1.9601624999999998 L 8.730003662109375 1.4359124999999997 L 8.782503662109375 1.4359124999999997 L 8.782503662109375 1.9174124999999997 M 9.10014404296875 1.4786624999999998 L 9.10014404296875 1.6744124999999999 L 9.29889404296875 1.6744124999999999 L 9.29889404296875 1.7179124999999997 L 9.10014404296875 1.7179124999999997 L 9.10014404296875 1.9166624999999997 L 9.32139404296875 1.9166624999999997 L 9.32139404296875 1.9601624999999998 L 9.04764404296875 1.9601624999999998 L 9.04764404296875 1.4351624999999997 L 9.32139404296875 1.4351624999999997 L 9.32139404296875 1.4786624999999998 L 9.10014404296875 1.4786624999999998 M 9.436512084960938 1.5592875 Q 9.470262084960938 1.4981624999999998 9.528762084960938 1.4640374999999999 Q 9.587262084960937 1.4299125 9.659262084960938 1.4299125 Q 9.747012084960938 1.4299125 9.809637084960938 1.4715374999999997 Q 9.872262084960937 1.5131624999999997 9.900762084960938 1.5889124999999997 L 9.839262084960938 1.5889124999999997 Q 9.816762084960937 1.5356625 9.770637084960937 1.5056624999999997 Q 9.724512084960937 1.4756624999999999 9.659262084960938 1.4756624999999999 Q 9.601512084960937 1.4756624999999999 9.555387084960937 1.5026624999999998 Q 9.509262084960938 1.5296624999999997 9.483012084960938 1.5802874999999998 Q 9.456762084960937 1.6309124999999998 9.456762084960937 1.6976624999999999 Q 9.456762084960937 1.7644124999999997 9.483012084960938 1.8146624999999998 Q 9.509262084960938 1.8649124999999998 9.555387084960937 1.8919124999999999 Q 9.601512084960937 1.9189124999999998 9.659262084960938 1.9189124999999998 Q 9.724512084960937 1.9189124999999998 9.770637084960937 1.8892874999999998 Q 9.816762084960937 1.8596624999999998 9.839262084960938 1.8071624999999998 L 9.900762084960938 1.8071624999999998 Q 9.872262084960937 1.8821624999999997 9.809262084960938 1.9234124999999997 Q 9.746262084960938 1.9646624999999998 9.659262084960938 1.9646624999999998 Q 9.587262084960937 1.9646624999999998 9.528762084960938 1.9305374999999998 Q 9.470262084960938 1.8964124999999998 9.436512084960938 1.8356624999999998 Q 9.402762084960937 1.7749125 9.402762084960937 1.6976624999999999 Q 9.402762084960937 1.6204124999999998 9.436512084960938 1.5592875 M 10.313634155273437 1.4359124999999997 L 10.313634155273437 1.4794124999999998 L 10.168134155273437 1.4794124999999998 L 10.168134155273437 1.9601624999999998 L 10.115634155273437 1.9601624999999998 L 10.115634155273437 1.4794124999999998 L 9.969384155273438 1.4794124999999998 L 9.969384155273438 1.4359124999999997 L 10.313634155273437 1.4359124999999997 M 10.380398803710937 1.9526624999999997 Q 10.369523803710937 1.9414124999999998 10.369523803710937 1.9249124999999998 Q 10.369523803710937 1.9084124999999998 10.380398803710937 1.8975374999999999 Q 10.391273803710938 1.8866625 10.407773803710938 1.8866625 Q 10.423523803710937 1.8866625 10.434398803710938 1.8975374999999999 Q 10.445273803710938 1.9084124999999998 10.445273803710938 1.9249124999999998 Q 10.445273803710938 1.9414124999999998 10.434398803710938 1.9526624999999997 Q 10.423523803710937 1.9639124999999997 10.407773803710938 1.9639124999999997 Q 10.391273803710938 1.9639124999999997 10.380398803710937 1.9526624999999997" fill="#d56a34" fill-rule="nonzero"></path></g></g><defs><clipPath id="SvgjsClipPath1486"><path d=" M -3.6877004819186925 -1.0757545238513244 h 3.2877004819186926 v 4.111671547702649 h -3.2877004819186926 Z"></path></clipPath><clipPath id="SvgjsClipPath14843e6794ec-689d-403f-b5dd-f3d0553bfdce"><path d=" M -3.687700481918692 -1.0757545238513244 L -0.3999999999999999 -1.0757545238513244 L -0.3999999999999999 3.0359170238513244 L -3.687700481918692 3.0359170238513244 Z"></path></clipPath></defs></svg>